#!OML:ASF I:\Actors\actors\Patient Classification 2\Patient 1\Session 1\actor1.ASF
:FULLY-SPECIFIED
:DEGREES
303
root 0.699577 18.1148 6.92757 10.2614 -18.0622 7.36248
lowerback 23.7015 3.12903 -2.94895
upperback 9.25319 2.85791 -6.89924
thorax -2.74884 1.43784 -6.5584
lowerneck 2.74851 -7.52324 3.56611
upperneck 46.1781 -6.68711 -12.8036
head 15.1454 -3.66509 -6.89931
rclavicle -8.3092e-014 1.47101e-014
rhumerus -63.4136 19.5404 -96.3224
rradius 73.1947
rwrist 14.7572
rhand 5.75755 -38.0852
rfingers 7.12502
rthumb 31.0923 -65.469
lclavicle -8.3092e-014 1.47101e-014
lhumerus -34.9415 -72.9132 61.1938
lradius 87.4788
lwrist 30.7485
lhand 45.1817 -0.240667
lfingers 7.12502
lthumb 66.5251 4.17328
rfemur -36.0466 -3.53403 -1.8427
rtibia 40.8856
rfoot -0.255473 3.98329
rtoes 9.82816
lfemur -29.0927 11.3226 -29.7883
ltibia 39.8059
lfoot -26.2519 5.43749
ltoes -49.9042
304
root 0.584519 18.1443 6.8785 11.036 -17.8655 6.1436
lowerback 23.9151 3.49536 -3.69756
upperback 9.23144 3.11314 -7.32616
thorax -2.85983 1.55315 -6.68899
lowerneck 2.72938 -7.69773 4.17453
upperneck 45.9378 -6.71067 -13.4811
head 14.9188 -3.67326 -7.26675
rclavicle -3.02153e-014 -1.23246e-014
rhumerus -65.4502 19.8741 -97.5633
rradius 75.2883
rwrist 13.3836
rhand 6.90344 -38.2511
rfingers 7.12502
rthumb 32.1838 -65.42
lclavicle -3.02153e-014 -1.23246e-014
lhumerus -26.2473 -74.7041 51.4325
lradius 88.8739
lwrist 33.0189
lhand 46.4774 0.757915
lfingers 7.12502
lthumb 67.4942 3.144
rfemur -36.4984 -4.57964 0.119133
rtibia 40.6248
rfoot 1.30048 4.05806
rtoes 12.9796
lfemur -29.7377 10.828 -28.0747
ltibia 40.0955
lfoot -26.2724 6.05517
ltoes -50.2041
305
root 0.463624 18.1776 6.84456 12.101 -17.3105 4.36276
lowerback 23.7833 3.70128 -3.83384
upperback 9.20469 3.34147 -7.56221
thorax -2.79238 1.66702 -6.92655
lowerneck 2.78699 -7.83177 4.59114
upperneck 45.5268 -6.76791 -13.8545
head 14.6174 -3.69753 -7.44016
rclavicle -1.03368e-014 8.50798e-014
rhumerus -67.482 20.3155 -98.7008
rradius 77.4096
rwrist 11.8131
rhand 7.98357 -38.6999
rfingers 7.12502
rthumb 33.2114 -65.6552
lclavicle -1.03368e-014 8.50798e-014
lhumerus -15.4863 -75.9943 39.596
lradius 90.2366
lwrist 35.1927
lhand 47.1917 1.43289
lfingers 7.12502
lthumb 68.0149 2.62321
rfemur -36.7733 -5.51935 2.67092
rtibia 40.1754
rfoot 2.53885 4.23975
rtoes 14.7505
lfemur -30.5561 10.3946 -25.7697
ltibia 40.4824
lfoot -26.2251 6.54193
ltoes -50.5757
306
root 0.340497 18.2033 6.80484 12.9788 -16.6244 2.72236
lowerback 23.806 3.88705 -4.02175
upperback 9.18846 3.52069 -7.77696
thorax -2.79706 1.75473 -7.10991
lowerneck 2.73047 -7.89134 4.78912
upperneck 45.1743 -6.77245 -14.0156
head 14.415 -3.70684 -7.49872
rclavicle -4.29375e-014 8.42847e-014
rhumerus -69.1436 20.595 -99.5854
rradius 79.3375
rwrist 10.556
rhand 9.03156 -39.0718
rfingers 7.12502
rthumb 34.2072 -65.8093
lclavicle -4.29375e-014 8.42847e-014
lhumerus -3.58065 -76.6264 26.7891
lradius 91.4163
lwrist 37.0734
lhand 47.499 1.66373
lfingers 7.12502
lthumb 68.2356 2.32173
rfemur -36.8133 -6.26047 5.02694
rtibia 39.5535
rfoot 3.43507 4.4083
rtoes 15.2805
lfemur -31.3331 9.94293 -23.5398
ltibia 40.9808
lfoot -26.192 6.99118
ltoes -50.9403
307
root 0.214878 18.2171 6.76014 13.67 -15.8967 1.24677
lowerback 23.9734 4.08957 -4.33316
upperback 9.19283 3.68159 -7.96534
thorax -2.86042 1.82956 -7.20025
lowerneck 2.59096 -7.9363 4.82426
upperneck 44.8921 -6.75544 -14.1302
head 14.2872 -3.72281 -7.52403
rclavicle -1.11319e-014 3.97569e-015
rhumerus -70.1828 20.3739 -99.9784
rradius 81.091
rwrist 10.029
rhand 10.3693 -39.4024
rfingers 7.12502
rthumb 35.4765 -65.8458
lclavicle -1.11319e-014 3.97569e-015
lhumerus 8.54896 -76.586 13.932
lradius 92.4355
lwrist 38.8267
lhand 47.6008 1.8042
lfingers 7.12502
lthumb 68.3083 2.28337
rfemur -36.6807 -6.82584 7.17812
rtibia 38.8223
rfoot 3.96182 4.60508
rtoes 15.5615
lfemur -32.0787 9.70026 -21.4532
ltibia 41.5852
lfoot -26.0528 7.17579
ltoes -51.2396
308
root 0.0857771 18.2199 6.71623 14.3573 -15.115 -0.287889
lowerback 24.1065 4.31271 -4.62328
upperback 9.19087 3.88181 -8.04364
thorax -2.91864 1.92169 -7.18739
lowerneck 2.41277 -8.0248 4.82223
upperneck 44.6001 -6.7762 -14.3149
head 14.1552 -3.7666 -7.57449
rclavicle -3.81667e-014 2.46493e-014
rhumerus -71.7268 20.9415 -100.57
rradius 82.6069
rwrist 9.11343
rhand 11.0206 -39.306
rfingers 7.12502
rthumb 36.0937 -65.5995
lclavicle -3.81667e-014 2.46493e-014
lhumerus 19.6161 -75.9778 2.3018
lradius 93.3078
lwrist 40.3607
lhand 47.839 2.07887
lfingers 7.12502
lthumb 68.4775 2.13472
rfemur -36.4657 -7.3117 9.46326
rtibia 38.0352
rfoot 4.11664 5.02745
rtoes 16.0985
lfemur -32.9067 9.68414 -19.3018
ltibia 42.2723
lfoot -25.7637 7.191
ltoes -51.7951
309
root -0.0469101 18.2154 6.67375 15.0733 -14.2954 -1.89207
lowerback 24.184 4.53682 -4.843
upperback 9.14079 4.1033 -8.07124
thorax -3.00232 2.02415 -7.16173
lowerneck 2.08246 -8.09537 4.93031
upperneck 44.3698 -6.76257 -14.5882
head 14.0792 -3.78763 -7.6994
rclavicle 3.18055e-014 -1.11319e-014
rhumerus -73.4697 21.3789 -100.926
rradius 84.386
rwrist 8.34228
rhand 11.7641 -39.0639
rfingers 7.12502
rthumb 36.7975 -65.1805
lclavicle 3.18055e-014 -1.11319e-014
lhumerus 28.6057 -74.9861 -7.12579
lradius 93.9479
lwrist 41.5078
lhand 48.1267 2.38411
lfingers 7.12502
lthumb 68.6802 1.91963
rfemur -36.1963 -7.68927 11.9185
rtibia 37.1821
rfoot 3.75415 5.66498
rtoes 15.6608
lfemur -33.8205 9.69721 -17.0369
ltibia 43.0262
lfoot -25.4956 7.1668
ltoes -52.4054
310
root -0.18112 18.2057 6.63724 15.7241 -13.5789 -3.51302
lowerback 24.2398 4.73776 -4.92718
upperback 9.06741 4.31741 -8.20768
thorax -3.08334 2.12771 -7.33503
lowerneck 1.76677 -8.08923 5.09401
upperneck 44.0664 -6.70712 -14.7134
head 13.9786 -3.76996 -7.75952
rclavicle -1.43125e-014 -1.27222e-014
rhumerus -75.1281 21.7859 -101.263
rradius 86.109
rwrist 7.46757
rhand 12.3835 -38.5866
rfingers 7.12502
rthumb 37.3833 -64.551
lclavicle -1.43125e-014 -1.27222e-014
lhumerus 35.4429 -73.6821 -14.4805
lradius 94.396
lwrist 42.4636
lhand 48.0944 2.73577
lfingers 7.12502
lthumb 68.6576 2.33017
rfemur -35.8082 -7.83722 14.403
rtibia 36.2698
rfoot 2.84051 6.48463
rtoes 13.6392
lfemur -34.6644 9.89249 -14.7646
ltibia 43.819
lfoot -25.3128 7.00746
ltoes -52.8354
311
root -0.312972 18.1907 6.60907 16.1958 -12.9556 -5.08536
lowerback 24.3309 4.93439 -4.91527
upperback 9.02268 4.54144 -8.39195
thorax -3.13608 2.23907 -7.62302
lowerneck 1.48081 -8.03169 5.25232
upperneck 43.706 -6.61932 -14.7396
head 13.8578 -3.72927 -7.76614
rclavicle -6.67916e-014 8.5875e-014
rhumerus -76.6602 22.2503 -101.514
rradius 87.6927
rwrist 6.35564
rhand 12.91 -38.132
rfingers 7.12502
rthumb 37.8809 -63.9635
lclavicle -6.67916e-014 8.5875e-014
lhumerus 40.1579 -72.2408 -19.5771
lradius 94.6116
lwrist 43.2494
lhand 47.7876 2.6852
lfingers 7.12502
lthumb 68.4411 2.83299
rfemur -35.1962 -7.80912 16.7935
rtibia 35.342
rfoot 1.57574 7.42962
rtoes 11.4037
lfemur -35.295 10.1316 -12.5374
ltibia 44.6159
lfoot -25.2138 6.85268
ltoes -53.3277
312
root -0.441274 18.1688 6.5836 16.5364 -12.2677 -6.51351
lowerback 24.4291 5.17415 -5.03028
upperback 8.9989 4.80411 -8.39976
thorax -3.19155 2.36308 -7.64879
lowerneck 1.14606 -8.0016 5.32239
upperneck 43.4042 -6.5163 -14.8968
head 13.7767 -3.70361 -7.82224
rclavicle -1.74931e-014 3.18055e-014
rhumerus -78.1774 22.8707 -101.413
rradius 89.1804
rwrist 5.00912
rhand 13.2821 -37.9482
rfingers 7.12502
rthumb 38.2323 -63.6838
lclavicle -1.74931e-014 3.18055e-014
lhumerus 43.0478 -70.8554 -22.3397
lradius 94.5998
lwrist 43.8519
lhand 47.2057 2.73601
lfingers 7.12502
lthumb 68.025 3.90229
rfemur -34.5058 -7.74122 19.0036
rtibia 34.4494
rfoot 0.217387 8.23429
rtoes 10.4321
lfemur -35.8442 10.1413 -10.3979
ltibia 45.3949
lfoot -25.1703 6.80455
ltoes -53.753
313
root -0.565627 18.1401 6.55776 16.794 -11.534 -7.75055
lowerback 24.5011 5.43644 -5.27186
upperback 9.00038 5.07866 -8.30475
thorax -3.22716 2.48867 -7.48562
lowerneck 0.765513 -8.00202 5.36758
upperneck 43.1608 -6.40519 -15.197
head 13.7281 -3.68939 -7.94389
rclavicle -7.95139e-015 2.06736e-014
rhumerus -79.5939 23.6219 -101.012
rradius 90.6033
rwrist 3.61586
rhand 13.6104 -37.9079
rfingers 7.12502
rthumb 38.5421 -63.5576
lclavicle -7.95139e-015 2.06736e-014
lhumerus 44.4807 -69.5195 -23.3155
lradius 94.4068
lwrist 44.2055
lhand 46.4642 3.19153
lfingers 7.12502
lthumb 67.4845 5.59929
rfemur -33.8945 -7.60771 20.9532
rtibia 33.6414
rfoot -1.13564 8.81555
rtoes 9.67006
lfemur -36.3823 10.0166 -8.44541
ltibia 46.1433
lfoot -25.0865 6.90927
ltoes -53.9683
314
root -0.684378 18.1073 6.53265 16.9792 -10.7586 -8.83616
lowerback 24.6254 5.60823 -5.3619
upperback 9.01205 5.26195 -8.30761
thorax -3.26377 2.57537 -7.50069
lowerneck 0.402579 -7.98256 5.54715
upperneck 42.926 -6.27702 -15.5278
head 13.6734 -3.65181 -8.1014
rclavicle 6.83819e-014 -2.70347e-014
rhumerus -80.7899 24.397 -100.541
rradius 91.9744
rwrist 2.20799
rhand 14.0716 -37.7587
rfingers 7.12502
rthumb 38.977 -63.2853
lclavicle 6.83819e-014 -2.70347e-014
lhumerus 44.3342 -68.5624 -22.325
lradius 93.6382
lwrist 43.7437
lhand 45.6995 3.0737
lfingers 7.12502
lthumb 66.916 6.69837
rfemur -33.3684 -7.41627 22.6728
rtibia 32.9507
rfoot -2.59353 9.32016
rtoes 7.71877
lfemur -36.8937 9.71447 -6.64105
ltibia 46.844
lfoot -24.9693 7.22397
ltoes -54.2405
315
root -0.797139 18.0718 6.50801 17.1322 -9.89632 -9.75659
lowerback 24.8039 5.67644 -5.31553
upperback 9.01543 5.33577 -8.37248
thorax -3.32767 2.61317 -7.64061
lowerneck 0.0319757 -7.91919 5.68155
upperneck 42.7226 -6.14945 -15.6681
head 13.6544 -3.60019 -8.17687
rclavicle -2.8625e-014 1.06549e-013
rhumerus -81.6568 25.2142 -99.989
rradius 93.1345
rwrist 0.829599
rhand 14.4711 -37.5191
rfingers 7.12502
rthumb 39.3536 -62.9369
lclavicle -2.8625e-014 1.06549e-013
lhumerus 43.4837 -67.4522 -20.6861
lradius 92.8869
lwrist 43.1681
lhand 44.6716 2.6343
lfingers 7.12502
lthumb 66.1356 7.79949
rfemur -32.9459 -7.18754 24.1545
rtibia 32.3933
rfoot -4.10808 9.73009
rtoes 6.35753
lfemur -37.4409 9.19412 -4.98925
ltibia 47.4841
lfoot -24.9295 7.48713
ltoes -54.6079
316
root -0.904849 18.0381 6.48495 17.3076 -9.01528 -10.5667
lowerback 24.9386 5.73122 -5.25691
upperback 8.99934 5.40306 -8.39418
thorax -3.39643 2.6474 -7.73342
lowerneck -0.299151 -7.85271 5.72201
upperneck 42.5485 -6.05077 -15.6708
head 13.6536 -3.55738 -8.1803
rclavicle 2.38542e-014 -4.13472e-014
rhumerus -82.1234 26.0647 -99.2205
rradius 93.981
rwrist -0.354865
rhand 14.9666 -37.2874
rfingers 7.12502
rthumb 39.8202 -62.5675
lclavicle 2.38542e-014 -4.13472e-014
lhumerus 41.9763 -66.3125 -18.2107
lradius 92.113
lwrist 42.2648
lhand 42.882 2.17389
lfingers 7.12502
lthumb 64.7368 9.78288
rfemur -32.6541 -6.6583 25.3851
rtibia 31.9762
rfoot -5.7134 9.86821
rtoes 5.28484
lfemur -38.045 8.64063 -3.47894
ltibia 48.0623
lfoot -24.8869 7.61763
ltoes -54.9444
317
root -1.00739 18.0075 6.46374 17.4518 -8.17203 -11.299
lowerback 25.0765 5.80793 -5.22002
upperback 8.97687 5.49578 -8.36192
thorax -3.47947 2.69219 -7.76064
lowerneck -0.534878 -7.84669 5.88908
upperneck 42.2961 -6.00357 -15.8455
head 13.5657 -3.53731 -8.26125
rclavicle -5.725e-014 9.54166e-015
rhumerus -82.3091 26.9385 -98.1343
rradius 94.7837
rwrist -1.43428
rhand 16.0465 -37.0789
rfingers 7.12502
rthumb 40.8358 -62.0472
lclavicle -5.725e-014 9.54166e-015
lhumerus 39.7597 -65.2734 -14.8355
lradius 91.3295
lwrist 41.0032
lhand 39.9702 1.64339
lfingers 7.12502
lthumb 62.3705 12.6682
rfemur -32.4496 -5.9169 26.448
rtibia 31.6976
rfoot -7.38107 9.69495
rtoes 3.01707
lfemur -38.6055 8.0625 -2.06504
ltibia 48.5774
lfoot -24.7873 7.74934
ltoes -55.1527
